<svg width="101" height="93" viewBox="0 0 101 93" fill="none" xmlns="http://www.w3.org/2000/svg">
<path d="M50.3807 92.3559L68.7936 35.6871H31.9674L50.3803 92.3559H50.3807Z" fill="#E24329"/>
<path d="M50.3807 92.3555L31.9674 35.6866H6.16254L50.3807 92.3555Z" fill="#FC6D26"/>
<path d="M6.16255 35.6866L0.567229 52.9081C0.318444 53.6737 0.31841 54.4984 0.567131 55.264C0.815853 56.0297 1.30056 56.6969 1.95179 57.1701L50.3806 92.3558L6.16216 35.687L6.16255 35.6866Z" fill="#FCA326"/>
<path d="M6.16254 35.6869H31.9674L20.8779 1.55549C20.3072 -0.200821 17.8227 -0.20043 17.2524 1.55549L6.16254 35.6869Z" fill="#E24329"/>
<path d="M50.3807 92.3555L68.7936 35.6866H94.5988L50.3803 92.3555H50.3807Z" fill="#FC6D26"/>
<path d="M94.5988 35.6866L100.194 52.9081C100.443 53.6738 100.443 54.4985 100.194 55.2641C99.9452 56.0297 99.4604 56.6969 98.8092 57.1701L50.3807 92.3558L94.5988 35.687V35.6866Z" fill="#FCA326"/>
<path d="M94.5989 35.6869H68.7936L79.8835 1.55549C80.4542 -0.200821 82.9387 -0.20043 83.5091 1.55549L94.5989 35.6869Z" fill="#E24329"/>
</svg>
