<svg width="101" height="100" viewBox="0 0 101 100" fill="none" xmlns="http://www.w3.org/2000/svg">
<path d="M60.3544 64.7173L35.8294 59.5924C35.7267 59.791 35.6124 59.9833 35.4872 60.1685L57.8138 92.7376L59.1607 91.3923L62.959 67.7715C62.317 67.5003 61.7472 67.0829 61.295 66.5526C60.8428 66.0223 60.5207 65.3937 60.3544 64.7169V64.7173ZM51.4077 32.6576C50.4889 34.067 48.903 34.9998 47.0968 34.9998C46.8187 34.9998 46.5484 34.9717 46.2827 34.9295L35.0981 52.4296L64.9797 39.5704C64.9703 39.4501 64.9438 39.3376 64.9438 39.2142C64.9438 38.9626 64.9781 38.7189 65.0188 38.4782L51.4077 32.658V32.6576ZM52.2201 29.4686L66.6984 35.6591C67.1598 35.2985 67.6875 35.032 68.2515 34.8748L70.6312 20.0781L61.5653 11.0123L51.3608 26.98C51.8609 27.7198 52.1573 28.5783 52.2201 29.469V29.4686ZM82.5576 32.0045L73.4718 22.9172L71.4968 35.1857C71.9975 35.4375 72.4472 35.7797 72.8233 36.1951L82.5576 32.0045V32.0045ZM60.7888 61.4857C61.1443 60.8402 61.6551 60.2935 62.275 59.8949C62.8948 59.4964 63.6042 59.2585 64.3391 59.2029L66.9484 42.9735C66.7437 42.8376 66.5609 42.6751 66.3812 42.5079L36.3278 55.442C36.4044 55.7561 36.4575 56.0764 36.4825 56.4092L60.7888 61.4857V61.4857ZM85.0325 34.481L74.5202 39.0044L100.458 50.0937L100.551 49.9999L85.0325 34.481ZM66.2469 67.8204L63.0875 87.4622L81.4326 69.1172L68.2187 66.3579C67.712 67.021 67.0285 67.5279 66.2469 67.8204V67.8204ZM30.5888 62.7704C29.9248 62.7704 29.2889 62.6564 28.6936 62.4544L22.5999 71.9906L20.2452 69.6375L26.017 60.6064C25.8743 60.4293 25.7413 60.2445 25.6186 60.0529L15.1625 64.5548L12.684 62.0763L24.1292 57.1498L3.4377 52.8311L0.607665 49.9999L1.50296 49.1046L25.3639 54.0858C25.6383 53.5653 25.9897 53.0891 26.4061 52.6733L14.825 35.781L17.164 33.442L29.2635 51.0921C29.698 50.9912 30.1424 50.9393 30.5884 50.9374C31.0994 50.9374 31.5947 51.0093 32.0681 51.1312L43.3902 33.4154C42.4684 32.4592 41.9537 31.1827 41.9543 29.8546C41.9543 29.4483 42.0058 29.0546 42.0949 28.6764L27.9701 22.6375L30.4478 20.1594L43.8304 25.8827C44.509 25.3234 45.3201 24.9481 46.1857 24.793C47.0513 24.6378 47.9423 24.708 48.7729 24.9968L59.2118 8.65918L50.553 -6.10352e-05L0.552979 49.9999L50.553 99.9999L55.4732 95.0797L32.9794 62.2638C32.2266 62.5975 31.4123 62.7701 30.5888 62.7704V62.7704ZM70.1312 43.6731L67.4765 60.1717C67.9405 60.5444 68.3246 61.0067 68.6062 61.531C68.8878 62.0553 69.061 62.6309 69.1156 63.2236L84.1825 66.3688L97.9792 52.5722L73.0765 41.9251C72.3639 42.8737 71.3052 43.5022 70.1312 43.6735V43.6731Z" fill="#25C7B7"/>
</svg>
